<?xml version="1.0" encoding="UTF-8"?>
<svg width="195px" height="52px" viewBox="0 0 195 52" version="1.1" xmlns="http://www.w3.org/2000/svg" xmlns:xlink="http://www.w3.org/1999/xlink">
    <!-- Generator: Sketch 49.3 (51167) - http://www.bohemiancoding.com/sketch -->
    <title>Artboard 2</title>
    <desc>Created with Sketch.</desc>
    <defs></defs>
    <g id="Artboard-2" stroke="none" stroke-width="1" fill="none" fill-rule="evenodd">
        <path d="M58,37.0447761 L58,16.7164179 C58,16.2786048 58.2779713,16.0398012 58.8339223,16 L64.3139828,16 C66.1803896,16 67.6695216,16.5074576 68.7814235,17.5223881 C69.8933254,18.5373185 70.449268,20.1392925 70.449268,22.3283582 L70.449268,22.6268657 C70.449268,24.8159313 69.8883617,26.4228804 68.7665321,27.4477612 C67.6447025,28.4726419 66.1406791,28.9850746 64.254417,28.9850746 L59.9656739,28.9850746 L59.9656739,37.0447761 C59.9656739,37.2835833 59.8663984,37.4726361 59.6678445,37.6119403 C59.4692906,37.7512445 59.240957,37.8208955 58.982837,37.8208955 C58.7048615,37.8208955 58.4715641,37.7512445 58.2829379,37.6119403 C58.0943117,37.4726361 58,37.2835833 58,37.0447761 Z M59.9656739,27.2835821 L64.254417,27.2835821 C65.6045836,27.2835821 66.646976,26.9054764 67.3816254,26.1492537 C68.1162749,25.393031 68.4835941,24.2487639 68.4835941,22.7164179 L68.4835941,22.358209 C68.4835941,19.3333182 67.0738825,17.8208955 64.254417,17.8208955 L59.9656739,17.8208955 L59.9656739,27.2835821 Z M73.6956083,37.0447761 L73.6956083,16.7164179 C73.6956083,16.2786048 73.9437969,16.0398012 74.4401817,16 L79.7117617,16 C81.6377347,16 83.1913957,16.4577069 84.3727915,17.3731343 C85.5541873,18.2885618 86.1448763,19.7910343 86.1448763,21.880597 C86.1448763,25.1840961 84.596179,27.1044749 81.498738,27.641791 L86.0853104,36.4776119 C86.164732,36.5771149 86.2044422,36.7064669 86.2044422,36.8656716 C86.2044422,37.1243794 86.0853116,37.3582079 85.8470469,37.5671642 C85.6087823,37.7761204 85.350666,37.880597 85.0726906,37.880597 C84.7152935,37.880597 84.3678294,37.5323418 84.0302877,36.8358209 L79.4437153,27.880597 L75.6612822,27.880597 L75.6612822,37.0447761 C75.6612822,37.2835833 75.5620067,37.4726361 75.3634528,37.6119403 C75.1648989,37.7512445 74.9365653,37.8208955 74.6784452,37.8208955 C74.4004698,37.8208955 74.1671724,37.7512445 73.9785462,37.6119403 C73.78992,37.4726361 73.6956083,37.2835833 73.6956083,37.0447761 Z M75.6612822,26.1791045 L79.7117617,26.1791045 C82.6900704,26.1791045 84.1792024,24.7761334 84.1792024,21.9701493 C84.1792024,19.2039663 82.6900704,17.8208955 79.7117617,17.8208955 L75.6612822,17.8208955 L75.6612822,26.1791045 Z M89.2125189,31.6119403 L89.2125189,22.358209 C89.2125189,20.1691433 89.7734253,18.5621942 90.8952549,17.5373134 C92.0170845,16.5124327 93.5211078,16 95.40737,16 C97.2936322,16 98.7976555,16.5124327 99.9194851,17.5373134 C101.041315,18.5621942 101.602221,20.1691433 101.602221,22.358209 L101.602221,31.6119403 C101.602221,33.8209066 101.041315,35.4378058 99.9194851,36.4626866 C98.7976555,37.4875673 97.2936322,38 95.40737,38 C93.5211078,38 92.0170845,37.4875673 90.8952549,36.4626866 C89.7734253,35.4378058 89.2125189,33.8209066 89.2125189,31.6119403 Z M91.1781928,31.6119403 C91.1781928,34.6567316 92.5879045,36.1791045 95.40737,36.1791045 C98.2268356,36.1791045 99.6365472,34.6567316 99.6365472,31.6119403 L99.6365472,22.358209 C99.6365472,19.3333182 98.2268356,17.8208955 95.40737,17.8208955 C92.5879045,17.8208955 91.1781928,19.3333182 91.1781928,22.358209 L91.1781928,31.6119403 Z M103.567895,16.9253731 C103.567895,16.686566 103.632424,16.4726378 103.761484,16.2835821 C103.890544,16.0945264 104.074204,16 104.312468,16 L116.255427,16 C116.493691,16 116.677351,16.0895513 116.806411,16.2686567 C116.935471,16.4477621 117,16.6567152 117,16.8955224 C117,17.1542301 116.935471,17.3781085 116.806411,17.5671642 C116.677351,17.7562199 116.493691,17.8507463 116.255427,17.8507463 L111.281676,17.8507463 L111.281676,37.0447761 C111.281676,37.2835833 111.1824,37.4726361 110.983847,37.6119403 C110.785293,37.7512445 110.556959,37.8208955 110.298839,37.8208955 C110.020863,37.8208955 109.787566,37.7512445 109.59894,37.6119403 C109.410314,37.4726361 109.316002,37.2835833 109.316002,37.0447761 L109.316002,17.8507463 L104.312468,17.8507463 C104.094059,17.8507463 103.915363,17.7611949 103.776376,17.5820896 C103.637388,17.4029842 103.567895,17.1840809 103.567895,16.9253731 Z" id="PROT" fill="#FFFFFF"></path>
        <path d="M119,31.6119403 L119,22.358209 C119,20.1691433 119.543264,18.5621942 120.629808,17.5373134 C121.716352,16.5124327 123.173068,16 125,16 C126.826932,16 128.283648,16.5124327 129.370192,17.5373134 C130.456736,18.5621942 131,20.1691433 131,22.358209 L131,31.6119403 C131,33.8209066 130.456736,35.4378058 129.370192,36.4626866 C128.283648,37.4875673 126.826932,38 125,38 C123.173068,38 121.716352,37.4875673 120.629808,36.4626866 C119.543264,35.4378058 119,33.8209066 119,31.6119403 Z M120.903846,31.6119403 C120.903846,34.6567316 122.269217,36.1791045 125,36.1791045 C127.730783,36.1791045 129.096154,34.6567316 129.096154,31.6119403 L129.096154,22.358209 C129.096154,19.3333182 127.730783,17.8208955 125,17.8208955 C122.269217,17.8208955 120.903846,19.3333182 120.903846,22.358209 L120.903846,31.6119403 Z" id="O" fill="#FFFFFF"></path>
        <path d="M12.7219934,8.92025757 L30.0229644,5.24282264 C35.9699525,3.97875132 41.8156711,7.7750054 43.0797424,13.7219934 L46.7571774,31.0229644 C48.0212487,36.9699525 44.2249946,42.8156711 38.2780066,44.0797424 L20.9770356,47.7571774 C15.0300476,49.0212487 9.18432889,45.2249946 7.92025757,39.2780066 L4.24282265,21.9770356 C2.97875132,16.0300475 6.77500538,10.1843289 12.7219934,8.92025757 Z M16.8841105,33.5455741 C16.8841105,33.8221839 17.0224134,34.0405569 17.2990232,34.2006993 C17.575633,34.3608418 17.9104715,34.4409119 18.3035485,34.4409119 C18.6820673,34.4409119 19.0132661,34.3608418 19.2971552,34.2006993 C19.5810442,34.0405569 19.7229866,33.8221839 19.7229866,33.5455741 L19.7229866,28.4792723 L22.1687875,28.4792723 C23.7119791,28.4792723 24.953065,28.078922 25.8920826,27.2782094 C26.8311001,26.4774967 27.3006018,25.2254922 27.3006018,23.522158 L27.3006018,23.391133 C27.3006018,21.7023572 26.8492978,20.4612713 25.9466763,19.6678379 C25.0440548,18.8744045 23.8430039,18.4776937 22.3434875,18.4776937 L17.9541484,18.4776937 C17.6338634,18.4776937 17.3754555,18.5650429 17.1789169,18.7397438 C16.9823783,18.9144448 16.8841105,19.1182594 16.8841105,19.3511941 L16.8841105,33.5455741 Z M19.7229866,26.2518465 L19.7229866,20.9671696 L22.1687875,20.9671696 C22.896708,20.9671696 23.460838,21.1782634 23.8611943,21.6004573 C24.2615507,22.0226512 24.4617258,22.6486536 24.4617258,23.4784831 L24.4617258,23.7405331 C24.4617258,24.5703625 24.2615507,25.1963648 23.8611943,25.6185587 C23.460838,26.0407527 22.896708,26.2518465 22.1687875,26.2518465 L19.7229866,26.2518465 Z M28.5946141,30.9032357 C28.5946141,33.2616983 29.9412471,34.4409119 32.6345531,34.4409119 L33.486216,34.4409119 C33.8647346,34.4409119 34.159538,34.3244464 34.3706351,34.0915118 C34.581732,33.8585772 34.6872789,33.5746925 34.6872789,33.239849 C34.6872789,32.919564 34.581732,32.6429583 34.3706351,32.4100237 C34.159538,32.1770891 33.8647346,32.0606236 33.486216,32.0606236 L32.6345531,32.0606236 C32.1832424,32.0606236 31.8666017,31.9732744 31.6846215,31.7985734 C31.5026414,31.6238726 31.4116527,31.3254296 31.4116527,30.9032357 L31.4116527,26.1208214 L33.9884786,26.1208214 C34.2068547,26.1208214 34.3815531,26.0189141 34.5125788,25.8150963 C34.6436045,25.6112786 34.7091164,25.3710684 34.7091164,25.0944586 C34.7091164,24.8178488 34.6436045,24.5776386 34.5125788,24.3738208 C34.3815531,24.170003 34.2068547,24.0680957 33.9884786,24.0680957 L31.4116527,24.0680957 L31.4116527,20.3120444 C31.4116527,20.0645514 31.2697103,19.8570971 30.9858213,19.6896754 C30.7019323,19.5222536 30.3707334,19.4385441 29.9922147,19.4385441 C29.6428128,19.4385441 29.3225326,19.5222536 29.0313643,19.6896754 C28.7401961,19.8570971 28.5946141,20.0645514 28.5946141,20.3120444 L28.5946141,30.9032357 Z" id="Combined-Shape" fill="#FFFFFF" fill-rule="nonzero" opacity="0.200000003"></path>
        <path d="M20.9770356,5.24282264 L38.2780066,8.92025757 C44.2249946,10.1843289 48.0212487,16.0300475 46.7571774,21.9770356 L43.0797424,39.2780066 C41.8156711,45.2249946 35.9699525,49.0212487 30.0229644,47.7571774 L12.7219934,44.0797424 C6.77500538,42.8156711 2.97875132,36.9699525 4.24282265,31.0229644 L7.92025757,13.7219934 C9.18432889,7.7750054 15.0300476,3.97875132 20.9770356,5.24282264 Z M16.8841105,33.5455741 C16.8841105,33.8221839 17.0224134,34.0405569 17.2990232,34.2006993 C17.575633,34.3608418 17.9104715,34.4409119 18.3035485,34.4409119 C18.6820673,34.4409119 19.0132661,34.3608418 19.2971552,34.2006993 C19.5810442,34.0405569 19.7229866,33.8221839 19.7229866,33.5455741 L19.7229866,28.4792723 L22.1687875,28.4792723 C23.7119791,28.4792723 24.953065,28.078922 25.8920826,27.2782094 C26.8311001,26.4774967 27.3006018,25.2254922 27.3006018,23.522158 L27.3006018,23.391133 C27.3006018,21.7023572 26.8492978,20.4612713 25.9466763,19.6678379 C25.0440548,18.8744045 23.8430039,18.4776937 22.3434875,18.4776937 L17.9541484,18.4776937 C17.6338634,18.4776937 17.3754555,18.5650429 17.1789169,18.7397438 C16.9823783,18.9144448 16.8841105,19.1182594 16.8841105,19.3511941 L16.8841105,33.5455741 Z M19.7229866,26.2518465 L19.7229866,20.9671696 L22.1687875,20.9671696 C22.896708,20.9671696 23.460838,21.1782634 23.8611943,21.6004573 C24.2615507,22.0226512 24.4617258,22.6486536 24.4617258,23.4784831 L24.4617258,23.7405331 C24.4617258,24.5703625 24.2615507,25.1963648 23.8611943,25.6185587 C23.460838,26.0407527 22.896708,26.2518465 22.1687875,26.2518465 L19.7229866,26.2518465 Z M28.5946141,30.9032357 C28.5946141,33.2616983 29.9412471,34.4409119 32.6345531,34.4409119 L33.486216,34.4409119 C33.8647346,34.4409119 34.159538,34.3244464 34.3706351,34.0915118 C34.581732,33.8585772 34.6872789,33.5746925 34.6872789,33.239849 C34.6872789,32.919564 34.581732,32.6429583 34.3706351,32.4100237 C34.159538,32.1770891 33.8647346,32.0606236 33.486216,32.0606236 L32.6345531,32.0606236 C32.1832424,32.0606236 31.8666017,31.9732744 31.6846215,31.7985734 C31.5026414,31.6238726 31.4116527,31.3254296 31.4116527,30.9032357 L31.4116527,26.1208214 L33.9884786,26.1208214 C34.2068547,26.1208214 34.3815531,26.0189141 34.5125788,25.8150963 C34.6436045,25.6112786 34.7091164,25.3710684 34.7091164,25.0944586 C34.7091164,24.8178488 34.6436045,24.5776386 34.5125788,24.3738208 C34.3815531,24.170003 34.2068547,24.0680957 33.9884786,24.0680957 L31.4116527,24.0680957 L31.4116527,20.3120444 C31.4116527,20.0645514 31.2697103,19.8570971 30.9858213,19.6896754 C30.7019323,19.5222536 30.3707334,19.4385441 29.9922147,19.4385441 C29.6428128,19.4385441 29.3225326,19.5222536 29.0313643,19.6896754 C28.7401961,19.8570971 28.5946141,20.0645514 28.5946141,20.3120444 L28.5946141,30.9032357 Z" id="Combined-Shape" fill="#FFFFFF" fill-rule="nonzero"></path>
        <path d="M134,16.9329685 C134,16.6922013 134.065392,16.4765171 134.196177,16.2859097 C134.326962,16.0953023 134.513077,16 134.754527,16 L146.857143,16 C147.098593,16 147.284708,16.0902864 147.415493,16.2708618 C147.546278,16.4514373 147.61167,16.6621055 147.61167,16.9028728 C147.61167,17.163704 147.546278,17.3894199 147.415493,17.5800274 C147.284708,17.7706348 147.098593,17.8659371 146.857143,17.8659371 L141.816901,17.8659371 L141.816901,37.2175103 C141.816901,37.4582775 141.716299,37.6488821 141.515091,37.7893297 C141.313882,37.9297773 141.082496,38 140.820926,38 C140.539234,38 140.302818,37.9297773 140.11167,37.7893297 C139.920522,37.6488821 139.82495,37.4582775 139.82495,37.2175103 L139.82495,17.8659371 L134.754527,17.8659371 C134.533198,17.8659371 134.352113,17.7756507 134.211268,17.5950752 C134.070422,17.4144998 134,17.1937998 134,16.9329685 Z M148.637827,16.8426813 C148.637827,16.601914 148.75352,16.4012776 148.984909,16.2407661 C149.216299,16.0802546 149.462775,16 149.724346,16 C150.046279,16 150.307846,16.2006364 150.509054,16.6019152 L156.062374,27.5868673 L161.645875,16.6019152 C161.847084,16.2006364 162.10865,16 162.430584,16 C162.692154,16 162.938631,16.0802546 163.17002,16.2407661 C163.40141,16.4012776 163.517103,16.601914 163.517103,16.8426813 C163.517103,17.0232567 163.476862,17.2038295 163.396378,17.3844049 L157.118712,29.3324213 C157.078471,29.452805 157.05835,29.5330595 157.05835,29.5731874 L157.05835,37.2175103 C157.05835,37.4582775 156.962778,37.6488821 156.77163,37.7893297 C156.580482,37.9297773 156.344066,38 156.062374,38 C155.800804,38 155.569418,37.9297773 155.368209,37.7893297 C155.167001,37.6488821 155.066398,37.4582775 155.066398,37.2175103 L155.066398,29.5731874 C155.066398,29.4728677 155.056338,29.3926132 155.036217,29.3324213 L148.788732,17.3844049 C148.688128,17.2038295 148.637827,17.0232567 148.637827,16.8426813 Z M166.384306,37.2175103 L166.384306,16.7222982 C166.384306,16.2808915 166.665993,16.0401279 167.229376,16 L172.782696,16 C174.674054,16 176.183093,16.5116228 177.309859,17.5348837 C178.436625,18.5581447 179,20.1732676 179,22.380301 L179,22.6812585 C179,24.8882919 178.431595,26.5084308 177.294769,27.5417237 C176.157942,28.5750166 174.633812,29.0916553 172.722334,29.0916553 L168.376258,29.0916553 L168.376258,37.2175103 C168.376258,37.4582775 168.275655,37.6488821 168.074447,37.7893297 C167.873238,37.9297773 167.641852,38 167.380282,38 C167.09859,38 166.862174,37.9297773 166.671026,37.7893297 C166.479878,37.6488821 166.384306,37.4582775 166.384306,37.2175103 Z M168.376258,27.376197 L172.722334,27.376197 C174.09055,27.376197 175.146878,26.9949879 175.891348,26.2325581 C176.635819,25.4701284 177.008048,24.3164692 177.008048,22.7715458 L177.008048,22.4103967 C177.008048,19.3606779 175.579491,17.8358413 172.722334,17.8358413 L168.376258,17.8358413 L168.376258,27.376197 Z" id="TYP" fill="#FFFFFF" opacity="0.5"></path>
        <path d="M182,37.2175103 L182,16.752394 C182,16.5116267 182.08759,16.326038 182.262774,16.1956224 C182.437957,16.0652068 182.642335,16 182.875912,16 L193.270073,16 C193.756693,16 194,16.2909228 194,16.872777 C194,17.1336082 193.93674,17.3593242 193.810219,17.5499316 C193.683698,17.740539 193.503651,17.8358413 193.270073,17.8358413 L183.927007,17.8358413 L183.927007,26.1121751 L188.510949,26.1121751 C188.744527,26.1121751 188.924574,26.1974456 189.051095,26.3679891 C189.177616,26.5385325 189.240876,26.7542167 189.240876,27.0150479 C189.240876,27.5567743 188.997569,27.8276334 188.510949,27.8276334 L183.927007,27.8276334 L183.927007,36.1641587 L193.270073,36.1641587 C193.484186,36.1641587 193.659367,36.2544451 193.79562,36.4350205 C193.931874,36.615596 194,36.836296 194,37.0971272 C194,37.6990454 193.756693,38 193.270073,38 L182.875912,38 C182.642335,38 182.437957,37.9297773 182.262774,37.7893297 C182.08759,37.6488821 182,37.4582775 182,37.2175103 Z" id="E" fill="#FFFFFF" opacity="0.5"></path>
    </g>
</svg>