<?xml version="1.0" encoding="UTF-8"?>
<svg width="551px" height="377px" viewBox="0 0 551 377" version="1.1" xmlns="http://www.w3.org/2000/svg" xmlns:xlink="http://www.w3.org/1999/xlink">
    <!-- Generator: Sketch 48.1 (47250) - http://www.bohemiancoding.com/sketch -->
    <title>Artboard 2</title>
    <desc>Created with Sketch.</desc>
    <defs></defs>
    <g id="Page-1" stroke="none" stroke-width="1" fill="none" fill-rule="evenodd">
        <g id="Artboard-2" fill="#FFFFFF">
            <path d="M88.06,51 C105.033418,51 118.143287,55.0216264 127.39,63.065 C136.636713,71.1083735 141.26,82.4765932 141.26,97.17 C141.26,112.623411 136.605047,124.624957 127.295,133.175 C117.984953,141.725043 104.906751,146 88.06,146 L61.65,146 L61.65,184 L31.63,184 L31.63,51 L88.06,51 Z M86.54,120.92 C95.0267091,120.92 101.518311,118.988353 106.015,115.125 C110.511689,111.261647 112.76,105.593371 112.76,98.12 C112.76,90.7732966 110.511689,85.2316853 106.015,81.495 C101.518311,77.7583146 95.0267091,75.89 86.54,75.89 L61.65,75.89 L61.65,120.92 L86.54,120.92 Z M184.84,100.21 C188.386684,93.876635 193.009971,89.0633498 198.71,85.77 C204.410028,82.4766502 211.059962,80.7666673 218.66,80.64 L218.66,108.19 C217.646661,108.063333 216.126677,108 214.1,108 C205.106622,108 197.981693,110.438309 192.725,115.315 C187.468307,120.191691 184.84,126.683293 184.84,134.79 L184.84,184 L155.58,184 L155.58,81.78 L184.84,81.78 L184.84,100.21 Z M276.49,80.83 C287.25672,80.83 296.788291,82.9833118 305.085,87.29 C313.381708,91.5966882 319.809977,97.6766274 324.37,105.53 C328.930022,113.383373 331.21,122.503281 331.21,132.89 C331.21,143.150051 328.930022,152.238294 324.37,160.155 C319.809977,168.071706 313.381708,174.214978 305.085,178.585 C296.788291,182.955022 287.25672,185.14 276.49,185.14 C265.596612,185.14 256.001708,182.955022 247.705,178.585 C239.408291,174.214978 232.980022,168.071706 228.42,160.155 C223.859977,152.238294 221.58,143.150051 221.58,132.89 C221.58,122.503281 223.859977,113.383373 228.42,105.53 C232.980022,97.6766274 239.408291,91.5966882 247.705,87.29 C256.001708,82.9833118 265.596612,80.83 276.49,80.83 Z M276.49,105.15 C268.889962,105.15 262.715023,107.746641 257.965,112.94 C253.214976,118.133359 250.84,124.909958 250.84,133.27 C250.84,141.630042 253.214976,148.406641 257.965,153.6 C262.715023,158.793359 268.889962,161.39 276.49,161.39 C283.96337,161.39 290.074976,158.793359 294.825,153.6 C299.575023,148.406641 301.95,141.630042 301.95,133.27 C301.95,124.909958 299.575023,118.133359 294.825,112.94 C290.074976,107.746641 283.96337,105.15 276.49,105.15 Z M409.559999,178.3 C405.75998,180.580011 401.548356,182.321661 396.924999,183.525 C392.301643,184.728339 387.64669,185.33 382.959999,185.33 C373.459952,185.33 365.733363,182.606694 359.779999,177.16 C353.826636,171.713306 350.849999,163.923384 350.849999,153.79 L350.849999,106.48 L336.599999,106.48 L336.599999,86.34 L350.849999,86.34 L350.849999,58.22 L379.919999,58.22 L379.919999,86.34 L407.659999,86.34 L407.659999,106.67 L379.919999,106.67 L379.919999,148.85 C379.919999,156.703373 383.023302,160.63 389.229999,160.63 C393.536688,160.63 398.28664,159.363346 403.479999,156.83 L409.559999,178.3 Z M469.099999,80.83 C479.86672,80.83 489.398291,82.9833118 497.694999,87.29 C505.991707,91.5966882 512.419976,97.6766274 516.979999,105.53 C521.540022,113.383373 523.819999,122.503281 523.819999,132.89 C523.819999,143.150051 521.540022,152.238294 516.979999,160.155 C512.419976,168.071706 505.991707,174.214978 497.694999,178.585 C489.398291,182.955022 479.86672,185.14 469.099999,185.14 C458.206611,185.14 448.611707,182.955022 440.314999,178.585 C432.018291,174.214978 425.590022,168.071706 421.029999,160.155 C416.469976,152.238294 414.189999,143.150051 414.189999,132.89 C414.189999,122.503281 416.469976,113.383373 421.029999,105.53 C425.590022,97.6766274 432.018291,91.5966882 440.314999,87.29 C448.611707,82.9833118 458.206611,80.83 469.099999,80.83 Z M469.099999,105.15 C461.499961,105.15 455.325023,107.746641 450.574999,112.94 C445.824975,118.133359 443.449999,124.909958 443.449999,133.27 C443.449999,141.630042 445.824975,148.406641 450.574999,153.6 C455.325023,158.793359 461.499961,161.39 469.099999,161.39 C476.57337,161.39 482.684975,158.793359 487.434999,153.6 C492.185023,148.406641 494.559999,141.630042 494.559999,133.27 C494.559999,124.909958 492.185023,118.133359 487.434999,112.94 C482.684975,107.746641 476.57337,105.15 469.099999,105.15 Z" id="Proto"></path>
            <path d="M192.33,311.3 C188.529981,313.580011 184.318356,315.321661 179.695,316.525 C175.071644,317.728339 170.41669,318.33 165.73,318.33 C156.229953,318.33 148.503363,315.606694 142.55,310.16 C136.596637,304.713306 133.62,296.923384 133.62,286.79 L133.62,239.48 L119.37,239.48 L119.37,219.34 L133.62,219.34 L133.62,191.22 L162.69,191.22 L162.69,219.34 L190.43,219.34 L190.43,239.67 L162.69,239.67 L162.69,281.85 C162.69,289.703373 165.793302,293.63 172,293.63 C176.306688,293.63 181.056641,292.363346 186.25,289.83 L192.33,311.3 Z M255.29,328.4 C248.196631,346.260089 235.720089,355.19 217.86,355.19 C212.413306,355.19 207.473355,354.398341 203.04,352.815 C198.606644,351.231659 194.300021,348.730017 190.12,345.31 L202.47,324.22 C206.903355,327.893352 211.336644,329.73 215.77,329.73 C221.976698,329.73 226.473319,326.69003 229.26,320.61 L232.11,314.91 L189.74,214.78 L219.95,214.78 L246.74,285.08 L270.87,214.78 L300.13,214.78 L255.29,328.4 Z M371.07,213.83 C380.570047,213.83 388.96163,216.014978 396.245,220.385 C403.528369,224.755022 409.16498,230.92996 413.155,238.91 C417.14502,246.89004 419.14,256.073281 419.14,266.46 C419.14,276.720051 417.176686,285.744961 413.25,293.535 C409.323313,301.325039 403.781702,307.373312 396.625,311.68 C389.468297,315.986688 381.140047,318.14 371.64,318.14 C364.546631,318.14 358.245027,316.778347 352.735,314.055 C347.224972,311.331653 342.570019,307.373359 338.77,302.18 L338.77,353.86 L309.51,353.86 L309.51,214.78 L338.77,214.78 L338.77,229.79 C342.443351,224.596641 347.034972,220.638347 352.545,217.915 C358.055027,215.191653 364.229965,213.83 371.07,213.83 Z M364.23,293.82 C371.70337,293.82 377.78331,291.191693 382.47,285.935 C387.15669,280.678307 389.5,273.870042 389.5,265.51 C389.5,257.276626 387.15669,250.531693 382.47,245.275 C377.78331,240.018307 371.70337,237.39 364.23,237.39 C356.756629,237.39 350.645023,240.018307 345.895,245.275 C341.144976,250.531693 338.77,257.276626 338.77,265.51 C338.77,273.996709 341.144976,280.836641 345.895,286.03 C350.645023,291.223359 356.756629,293.82 364.23,293.82 Z M478.109999,213.83 C494.576748,213.83 507.084957,218.579952 515.634999,228.08 C524.185042,237.580047 528.459999,250.816582 528.459999,267.79 C528.459999,270.830015 528.396667,273.173325 528.269999,274.82 L454.929999,274.82 C456.576674,281.280032 459.743309,286.314982 464.429999,289.925 C469.11669,293.535018 474.7533,295.34 481.339999,295.34 C486.153357,295.34 490.776644,294.421676 495.209999,292.585 C499.643355,290.748324 503.633315,288.056684 507.179999,284.51 L522.569999,300.09 C517.37664,305.916696 511.075036,310.381651 503.664999,313.485 C496.254962,316.588349 487.990045,318.14 478.869999,318.14 C468.103279,318.14 458.698373,315.986688 450.654999,311.68 C442.611626,307.373312 436.405021,301.293373 432.034999,293.44 C427.664978,285.586627 425.479999,276.530051 425.479999,266.27 C425.479999,255.883281 427.696644,246.731706 432.129999,238.815 C436.563355,230.898294 442.76996,224.755022 450.749999,220.385 C458.730039,216.014978 467.849948,213.83 478.109999,213.83 Z M500.909999,257.53 C500.656665,250.816633 498.503353,245.433354 494.449999,241.38 C490.396646,237.326646 485.013366,235.3 478.299999,235.3 C471.966634,235.3 466.678354,237.29498 462.434999,241.285 C458.191645,245.27502 455.500005,250.689966 454.359999,257.53 L500.909999,257.53 Z" id="type" opacity="0.200000003"></path>
        </g>
    </g>
</svg>