<?xml version="1.0" encoding="UTF-8"?>
<svg width="71px" height="71px" viewBox="0 0 71 71" version="1.1" xmlns="http://www.w3.org/2000/svg" xmlns:xlink="http://www.w3.org/1999/xlink">
    <!-- Generator: Sketch 48.1 (47250) - http://www.bohemiancoding.com/sketch -->
    <title>logo_shape1</title>
    <desc>Created with Sketch.</desc>
    <defs></defs>
    <g id="Page-1" stroke="none" stroke-width="1" fill="none" fill-rule="evenodd">
        <g id="logo_shape1">
            <rect id="Rectangle" fill="#FFFFFF" x="3" y="3" width="65" height="65" rx="2"></rect>
            <path d="M19.288,23.362 C22.6826836,23.362 25.317324,24.1789918 27.192,25.813 C29.066676,27.4470082 30.004,29.7459852 30.004,32.71 C30.004,35.851349 29.066676,38.289658 27.192,40.025 C25.317324,41.760342 22.6826836,42.628 19.288,42.628 L14.538,42.628 L14.538,50 L7.584,50 L7.584,23.362 L19.288,23.362 Z M18.946,37.08 C20.3646738,37.08 21.4603295,36.7253369 22.233,36.016 C23.0056705,35.3066631 23.392,34.2806734 23.392,32.938 C23.392,31.6459935 23.0056705,30.6516702 22.233,29.955 C21.4603295,29.2583299 20.3646738,28.91 18.946,28.91 L14.538,28.91 L14.538,37.08 L18.946,37.08 Z M45.9399998,48.936 C45.179996,49.3666688 44.3060047,49.7023321 43.3179998,49.943 C42.3299949,50.1836679 41.3293382,50.304 40.3159998,50.304 C38.289323,50.304 36.6490061,49.7213392 35.3949998,48.556 C34.1409935,47.3906608 33.5139998,45.7820103 33.5139998,43.73 L33.5139998,34.914 L30.6639998,34.914 L30.6639998,30.43 L33.5139998,30.43 L33.5139998,24.73 L40.2399998,24.73 L40.2399998,30.43 L45.5599998,30.43 L45.5599998,34.914 L40.2399998,34.914 L40.2399998,42.666 C40.2399998,44.1100072 40.8353272,44.832 42.0259998,44.832 C42.7606701,44.832 43.6346614,44.6040023 44.6479998,44.148 L45.9399998,48.936 Z" id="Pt" fill="#22282D"></path>
            <path d="M8.182,8.186 L16.008,8.186 L16.008,9.964 L12.312,18 L9.596,18 L13.166,10.244 L10.45,10.244 L10.436,11.63 L8.182,11.63 L8.182,8.186 Z M20.474,8.074 C21.5286719,8.074 22.3686635,8.31433093 22.994,8.795 C23.6193365,9.27566907 23.932,9.92199594 23.932,10.734 C23.932,11.1446687 23.827001,11.5296649 23.617,11.889 C23.4069989,12.2483351 23.1246684,12.5353323 22.77,12.75 C23.2833359,12.9833345 23.6893318,13.3216645 23.988,13.765 C24.2866682,14.2083356 24.436,14.700664 24.436,15.242 C24.436,15.8206696 24.2750016,16.3269978 23.953,16.761 C23.6309984,17.1950022 23.1713363,17.5286655 22.574,17.762 C21.9766637,17.9953345 21.2813373,18.112 20.488,18.112 C19.6946627,18.112 19.0016696,17.9953345 18.409,17.762 C17.8163304,17.5286655 17.3566683,17.1996688 17.03,16.775 C16.7033317,16.3503312 16.54,15.8533362 16.54,15.284 C16.54,14.7333306 16.7033317,14.2316689 17.03,13.779 C17.3566683,13.3263311 17.790664,12.9833345 18.332,12.75 C17.939998,12.5166655 17.6273345,12.2133352 17.394,11.84 C17.1606655,11.4666648 17.044,11.0746687 17.044,10.664 C17.044,10.1413307 17.1839986,9.68400196 17.464,9.292 C17.7440014,8.89999804 18.1429974,8.59900105 18.661,8.389 C19.1790026,8.17899895 19.7833299,8.074 20.474,8.074 Z M20.488,9.796 C20.0679979,9.796 19.7436678,9.8893324 19.515,10.076 C19.2863322,10.2626676 19.172,10.5286649 19.172,10.874 C19.172,11.2100017 19.2863322,11.4689991 19.515,11.651 C19.7436678,11.8330009 20.0679979,11.924 20.488,11.924 C20.9173355,11.924 21.2439989,11.8330009 21.468,11.651 C21.6920011,11.4689991 21.804,11.2100017 21.804,10.874 C21.804,10.5286649 21.6920011,10.2626676 21.468,10.076 C21.2439989,9.8893324 20.9173355,9.796 20.488,9.796 Z M20.488,13.8 C19.9933309,13.8 19.6130013,13.9049989 19.347,14.115 C19.0809987,14.3250011 18.948,14.625998 18.948,15.018 C18.948,15.410002 19.0809987,15.710999 19.347,15.921 C19.6130013,16.1310011 19.9933309,16.236 20.488,16.236 C20.9826691,16.236 21.365332,16.1310011 21.636,15.921 C21.906668,15.710999 22.042,15.410002 22.042,15.018 C22.042,14.625998 21.906668,14.3250011 21.636,14.115 C21.365332,13.9049989 20.9826691,13.8 20.488,13.8 Z" id="78" fill="#22282D"></path>
            <path d="M8.74,61.06 L10.16,61.06 L10.16,56.88 L8.99,56.88 L8.99,56.16 C9.3100016,56.0999997 9.58499885,56.0283338 9.815,55.945 C10.0450012,55.8616662 10.259999,55.7600006 10.46,55.64 L11.32,55.64 L11.32,61.06 L12.57,61.06 L12.57,62 L8.74,62 L8.74,61.06 Z M15.57,58.74 C15.7500009,58.74 15.9416656,58.6833339 16.145,58.57 C16.3483344,58.4566661 16.5366658,58.266668 16.71,58 C16.6499997,57.4399972 16.5116678,57.0333346 16.295,56.78 C16.0783323,56.5266654 15.8166682,56.4 15.51,56.4 C15.2499987,56.4 15.0266676,56.5033323 14.84,56.71 C14.6533324,56.9166677 14.56,57.2133314 14.56,57.6 C14.56,57.9800019 14.6483324,58.2649991 14.825,58.455 C15.0016676,58.6450009 15.2499984,58.74 15.57,58.74 Z M14.22,60.7 C14.3400006,60.8400007 14.4916657,60.9549995 14.675,61.045 C14.8583342,61.1350004 15.0466657,61.18 15.24,61.18 C15.440001,61.18 15.6283325,61.1400004 15.805,61.06 C15.9816676,60.9799996 16.136666,60.8483343 16.27,60.665 C16.403334,60.4816658 16.5116662,60.2400015 16.595,59.94 C16.6783338,59.6399985 16.7266666,59.2700022 16.74,58.83 C16.5533324,59.0633345 16.3333346,59.2449994 16.08,59.375 C15.8266654,59.5050006 15.5833345,59.57 15.35,59.57 C15.0766653,59.57 14.8266678,59.5300004 14.6,59.45 C14.3733322,59.3699996 14.1783342,59.2483341 14.015,59.085 C13.8516658,58.9216658 13.7250004,58.7166679 13.635,58.47 C13.5449995,58.2233321 13.5,57.933335 13.5,57.6 C13.5,57.2799984 13.5533328,56.991668 13.66,56.735 C13.7666672,56.478332 13.9099991,56.2600009 14.09,56.08 C14.2700009,55.8999991 14.4816655,55.7616672 14.725,55.665 C14.9683346,55.5683328 15.2266653,55.52 15.5,55.52 C15.8066682,55.52 16.0999986,55.581666 16.38,55.705 C16.6600014,55.828334 16.9049989,56.0166654 17.115,56.27 C17.3250011,56.5233346 17.491666,56.8449981 17.615,57.235 C17.738334,57.6250019 17.8,58.086664 17.8,58.62 C17.8,59.2400031 17.7316674,59.7699978 17.595,60.21 C17.4583327,60.6500022 17.2750012,61.0116653 17.045,61.295 C16.8149989,61.5783347 16.5483348,61.786666 16.245,61.92 C15.9416652,62.053334 15.6266683,62.12 15.3,62.12 C14.9199981,62.12 14.5900014,62.0500007 14.31,61.91 C14.0299986,61.7699993 13.7933343,61.600001 13.6,61.4 L14.22,60.7 Z M19.03,60.5 C19.2233343,60.6800009 19.4399988,60.8383326 19.68,60.975 C19.9200012,61.1116673 20.1999984,61.18 20.52,61.18 C20.8800018,61.18 21.1749989,61.0733344 21.405,60.86 C21.6350012,60.6466656 21.75,60.3466686 21.75,59.96 C21.75,59.5799981 21.6433344,59.2866677 21.43,59.08 C21.2166656,58.8733323 20.9333351,58.77 20.58,58.77 C20.3733323,58.77 20.2000007,58.798333 20.06,58.855 C19.9199993,58.9116669 19.7533343,59.0033327 19.56,59.13 L19.01,58.78 L19.2,55.64 L22.6,55.64 L22.6,56.61 L20.2,56.61 L20.07,58.15 C20.203334,58.083333 20.3349994,58.0316669 20.465,57.995 C20.5950007,57.9583332 20.7433325,57.94 20.91,57.94 C21.1833347,57.94 21.4416655,57.9799996 21.685,58.06 C21.9283346,58.1400004 22.1399991,58.2616658 22.32,58.425 C22.5000009,58.5883342 22.6433328,58.7949987 22.75,59.045 C22.8566672,59.2950012 22.91,59.5899983 22.91,59.93 C22.91,60.2766684 22.848334,60.5866653 22.725,60.86 C22.601666,61.1333347 22.4366677,61.3633324 22.23,61.55 C22.0233323,61.7366676 21.7850014,61.8783328 21.515,61.975 C21.2449986,62.0716671 20.9633348,62.12 20.67,62.12 C20.1566641,62.12 19.7250018,62.0316676 19.375,61.855 C19.0249983,61.6783324 18.7333345,61.4733345 18.5,61.24 L19.03,60.5 Z M24.02,61.34 C24.02,61.1133322 24.0916659,60.9266674 24.235,60.78 C24.378334,60.6333326 24.5566656,60.56 24.77,60.56 C24.9833344,60.56 25.1599993,60.6333326 25.3,60.78 C25.4400007,60.9266674 25.51,61.1133322 25.51,61.34 C25.51,61.5666678 25.4400007,61.7533326 25.3,61.9 C25.1599993,62.0466674 24.9833344,62.12 24.77,62.12 C24.5566656,62.12 24.378334,62.0466674 24.235,61.9 C24.0916659,61.7533326 24.02,61.5666678 24.02,61.34 Z M28.7,62.12 C28.03333,62.12 27.5066686,61.8350029 27.12,61.265 C26.7333314,60.6949971 26.54,59.8700054 26.54,58.79 C26.54,57.7099946 26.7333314,56.8950028 27.12,56.345 C27.5066686,55.7949973 28.03333,55.52 28.7,55.52 C29.36667,55.52 29.8933314,55.7966639 30.28,56.35 C30.6666686,56.9033361 30.86,57.7166613 30.86,58.79 C30.86,59.8700054 30.6666686,60.6949971 30.28,61.265 C29.8933314,61.8350029 29.36667,62.12 28.7,62.12 Z M28.7,61.22 C28.8533341,61.22 28.9949994,61.1783338 29.125,61.095 C29.2550006,61.0116662 29.3666662,60.8733343 29.46,60.68 C29.5533338,60.4866657 29.6266664,60.2366682 29.68,59.93 C29.7333336,59.6233318 29.76,59.2433356 29.76,58.79 C29.76,58.3433311 29.7333336,57.9683348 29.68,57.665 C29.6266664,57.3616652 29.5533338,57.1166676 29.46,56.93 C29.3666662,56.7433324 29.2550006,56.6116671 29.125,56.535 C28.9949994,56.4583329 28.8533341,56.42 28.7,56.42 C28.5466659,56.42 28.4050006,56.4583329 28.275,56.535 C28.1449994,56.6116671 28.0333338,56.7433324 27.94,56.93 C27.8466662,57.1166676 27.7733336,57.3616652 27.72,57.665 C27.6666664,57.9683348 27.64,58.3433311 27.64,58.79 C27.64,59.2433356 27.6666664,59.6233318 27.72,59.93 C27.7733336,60.2366682 27.8466662,60.4866657 27.94,60.68 C28.0333338,60.8733343 28.1449994,61.0116662 28.275,61.095 C28.4050006,61.1783338 28.5466659,61.22 28.7,61.22 Z M32.69,60.25 C32.69,60.5700016 32.8033322,60.8249991 33.03,61.015 C33.2566678,61.2050009 33.5333317,61.3 33.86,61.3 C34.1666682,61.3 34.4183324,61.2166675 34.615,61.05 C34.8116676,60.8833325 34.91,60.6500015 34.91,60.35 C34.91,60.1766658 34.8700004,60.028334 34.79,59.905 C34.7099996,59.781666 34.6016673,59.6716671 34.465,59.575 C34.3283327,59.4783329 34.1666676,59.3900004 33.98,59.31 C33.7933324,59.2299996 33.5933344,59.1466671 33.38,59.06 C33.179999,59.2066674 33.0150006,59.379999 32.885,59.58 C32.7549993,59.780001 32.69,60.0033321 32.69,60.25 Z M34.26,58.41 C34.4333342,58.2366658 34.5649995,58.0600009 34.655,57.88 C34.7450004,57.6999991 34.79,57.510001 34.79,57.31 C34.79,57.0299986 34.7083341,56.7983342 34.545,56.615 C34.3816659,56.4316658 34.1500015,56.34 33.85,56.34 C33.6033321,56.34 33.3966675,56.4149993 33.23,56.565 C33.0633325,56.7150008 32.98,56.9299986 32.98,57.21 C32.98,57.3700008 33.013333,57.5099994 33.08,57.63 C33.146667,57.7500006 33.2383327,57.8549996 33.355,57.945 C33.4716672,58.0350004 33.6066659,58.118333 33.76,58.195 C33.9133341,58.271667 34.0799991,58.343333 34.26,58.41 Z M31.68,60.37 C31.68,60.169999 31.7116664,59.9883342 31.775,59.825 C31.8383337,59.6616658 31.9233328,59.513334 32.03,59.38 C32.1366672,59.246666 32.2583326,59.1266672 32.395,59.02 C32.5316673,58.9133328 32.6766659,58.8200004 32.83,58.74 L32.83,58.7 C32.5833321,58.5266658 32.3750008,58.3200012 32.205,58.08 C32.0349991,57.8399988 31.95,57.5500017 31.95,57.21 C31.95,56.9499987 31.9983328,56.7166677 32.095,56.51 C32.1916672,56.3033323 32.3249991,56.1266674 32.495,55.98 C32.6650008,55.8333326 32.8683322,55.7200004 33.105,55.64 C33.3416679,55.5599996 33.5966653,55.52 33.87,55.52 C34.1566681,55.52 34.4149989,55.5616663 34.645,55.645 C34.8750012,55.7283337 35.0716659,55.8449993 35.235,55.995 C35.3983342,56.1450008 35.5233329,56.324999 35.61,56.535 C35.6966671,56.745001 35.74,56.9799987 35.74,57.24 C35.74,57.4000008 35.7150002,57.551666 35.665,57.695 C35.6149998,57.8383341 35.5500004,57.971666 35.47,58.095 C35.3899996,58.218334 35.2983339,58.3316662 35.195,58.435 C35.0916661,58.5383339 34.9900005,58.6266663 34.89,58.7 L34.89,58.74 C35.0366674,58.8200004 35.176666,58.9116662 35.31,59.015 C35.443334,59.1183338 35.5599995,59.236666 35.66,59.37 C35.7600005,59.503334 35.8399997,59.6533325 35.9,59.82 C35.9600003,59.9866675 35.99,60.1766656 35.99,60.39 C35.99,60.6366679 35.9383338,60.864999 35.835,61.075 C35.7316662,61.285001 35.5866676,61.4683325 35.4,61.625 C35.2133324,61.7816675 34.986668,61.9033329 34.72,61.99 C34.453332,62.0766671 34.1600016,62.12 33.84,62.12 C33.5266651,62.12 33.2383346,62.0766671 32.975,61.99 C32.7116653,61.9033329 32.4850009,61.7833341 32.295,61.63 C32.104999,61.4766659 31.9550006,61.2933344 31.845,61.08 C31.7349995,60.8666656 31.68,60.6300013 31.68,60.37 Z" id="195.08" fill="#22282D"></path>
        </g>
    </g>
</svg>