<?xml version="1.0" encoding="UTF-8"?>
<svg width="148px" height="31px" viewBox="0 0 148 31" version="1.1" xmlns="http://www.w3.org/2000/svg" xmlns:xlink="http://www.w3.org/1999/xlink">
    <!-- Generator: Sketch 48.1 (47250) - http://www.bohemiancoding.com/sketch -->
    <title>logo_shape2</title>
    <desc>Created with Sketch.</desc>
    <defs></defs>
    <g id="Page-1" stroke="none" stroke-width="1" fill="none" fill-rule="evenodd">
        <g id="logo_shape2" fill="#FFFFFF">
            <path d="M10.9565961,2 C13.650625,2 15.7314296,2.62870658 17.1990722,3.88613861 C18.6667148,5.14357064 19.4005251,6.92078059 19.4005251,9.21782178 C19.4005251,11.6336754 18.6616887,13.5098943 17.1839938,14.8465347 C15.7062988,16.183175 13.6305203,16.8514851 10.9565961,16.8514851 L6.76478851,16.8514851 L6.76478851,22.7920792 L2,22.7920792 L2,2 L10.9565961,2 Z M10.715341,12.9306931 C12.0623555,12.9306931 13.0927055,12.6287159 13.8064222,12.0247525 C14.5201388,11.4207891 14.8769917,10.5346593 14.8769917,9.36633663 C14.8769917,8.21781604 14.5201388,7.35148807 13.8064222,6.76732673 C13.0927055,6.1831654 12.0623555,5.89108911 10.715341,5.89108911 L6.76478851,5.89108911 L6.76478851,12.9306931 L10.715341,12.9306931 Z M26.3175631,9.69306931 C26.8804945,8.70296535 27.6143048,7.95049762 28.519016,7.43564356 C29.4237272,6.9207895 30.4792078,6.65346545 31.6854894,6.63366337 L31.6854894,10.9405941 C31.5246518,10.920792 31.2833991,10.9108911 30.961724,10.9108911 C29.5342908,10.9108911 28.4034187,11.2920754 27.569074,12.0544554 C26.7347292,12.8168355 26.3175631,13.8316768 26.3175631,15.0990099 L26.3175631,22.7920792 L21.6734021,22.7920792 L21.6734021,6.81188119 L26.3175631,6.81188119 L26.3175631,9.69306931 Z M40.864294,6.66336634 C42.5731929,6.66336634 44.0860484,6.99999663 45.4029058,7.67326733 C46.7197633,8.34653802 47.7400611,9.29702356 48.4638301,10.5247525 C49.1875991,11.7524814 49.5494781,13.1782097 49.5494781,14.8019802 C49.5494781,16.4059486 49.1875991,17.8267265 48.4638301,19.0643564 C47.7400611,20.3019864 46.7197633,21.2623728 45.4029058,21.9455446 C44.0860484,22.6287163 42.5731929,22.970297 40.864294,22.970297 C39.1352904,22.970297 37.6123827,22.6287163 36.2955253,21.9455446 C34.9786679,21.2623728 33.95837,20.3019864 33.234601,19.0643564 C32.510832,17.8267265 32.148953,16.4059486 32.148953,14.8019802 C32.148953,13.1782097 32.510832,11.7524814 33.234601,10.5247525 C33.95837,9.29702356 34.9786679,8.34653802 36.2955253,7.67326733 C37.6123827,6.99999663 39.1352904,6.66336634 40.864294,6.66336634 Z M40.864294,10.4653465 C39.6580124,10.4653465 38.6779233,10.8712831 37.9239973,11.6831683 C37.1700713,12.4950536 36.7931139,13.5544489 36.7931139,14.8613861 C36.7931139,16.1683234 37.1700713,17.2277187 37.9239973,18.039604 C38.6779233,18.8514892 39.6580124,19.2574257 40.864294,19.2574257 C42.0504709,19.2574257 43.0205078,18.8514892 43.7744338,18.039604 C44.5283598,17.2277187 44.9053172,16.1683234 44.9053172,14.8613861 C44.9053172,13.5544489 44.5283598,12.4950536 43.7744338,11.6831683 C43.0205078,10.8712831 42.0504709,10.4653465 40.864294,10.4653465 Z M61.9852268,21.9009901 C61.382086,22.2574275 60.713615,22.529702 59.9797937,22.7178218 C59.2459724,22.9059415 58.507136,23 57.7632623,23 C56.2554103,23 55.0290424,22.5742617 54.0841218,21.7227723 C53.1392012,20.8712829 52.666748,19.6534733 52.666748,18.0693069 L52.666748,10.6732673 L50.4049813,10.6732673 L50.4049813,7.52475248 L52.666748,7.52475248 L52.666748,3.12871287 L57.2807521,3.12871287 L57.2807521,7.52475248 L61.6836579,7.52475248 L61.6836579,10.7029703 L57.2807521,10.7029703 L57.2807521,17.2970297 C57.2807521,18.5247586 57.7733097,19.1386139 58.7584396,19.1386139 C59.4419992,19.1386139 60.1959139,18.940596 61.0202063,18.5445545 L61.9852268,21.9009901 Z M71.3148159,6.66336634 C73.0237148,6.66336634 74.5365703,6.99999663 75.8534277,7.67326733 C77.1702851,8.34653802 78.190583,9.29702356 78.914352,10.5247525 C79.6381209,11.7524814 80,13.1782097 80,14.8019802 C80,16.4059486 79.6381209,17.8267265 78.914352,19.0643564 C78.190583,20.3019864 77.1702851,21.2623728 75.8534277,21.9455446 C74.5365703,22.6287163 73.0237148,22.970297 71.3148159,22.970297 C69.5858123,22.970297 68.0629046,22.6287163 66.7460472,21.9455446 C65.4291897,21.2623728 64.4088919,20.3019864 63.6851229,19.0643564 C62.9613539,17.8267265 62.5994749,16.4059486 62.5994749,14.8019802 C62.5994749,13.1782097 62.9613539,11.7524814 63.6851229,10.5247525 C64.4088919,9.29702356 65.4291897,8.34653802 66.7460472,7.67326733 C68.0629046,6.99999663 69.5858123,6.66336634 71.3148159,6.66336634 Z M71.3148159,10.4653465 C70.1085343,10.4653465 69.1284452,10.8712831 68.3745192,11.6831683 C67.6205932,12.4950536 67.2436358,13.5544489 67.2436358,14.8613861 C67.2436358,16.1683234 67.6205932,17.2277187 68.3745192,18.039604 C69.1284452,18.8514892 70.1085343,19.2574257 71.3148159,19.2574257 C72.5009928,19.2574257 73.4710297,18.8514892 74.2249557,18.039604 C74.9788817,17.2277187 75.355839,16.1683234 75.355839,14.8613861 C75.355839,13.5544489 74.9788817,12.4950536 74.2249557,11.6831683 C73.4710297,10.8712831 72.5009928,10.4653465 71.3148159,10.4653465 Z" id="Proto"></path>
            <path d="M93.5925592,22.0405562 C92.988777,22.4020876 92.3195952,22.6782532 91.5849936,22.8690614 C90.850392,23.0598696 90.1107699,23.1552723 89.3661053,23.1552723 C87.85665,23.1552723 86.628978,22.7234497 85.6830527,21.8597914 C84.7371273,20.9961332 84.2641717,19.7609196 84.2641717,18.1541136 L84.2641717,10.6523754 L82,10.6523754 L82,7.45886443 L84.2641717,7.45886443 L84.2641717,3 L88.883082,3 L88.883082,7.45886443 L93.2906696,7.45886443 L93.2906696,10.6825029 L88.883082,10.6825029 L88.883082,17.3707995 C88.883082,18.6160742 89.3761634,19.2387022 90.3623409,19.2387022 C91.0466273,19.2387022 91.8013436,19.0378545 92.6265126,18.636153 L93.5925592,22.0405562 Z M103.596226,24.7520278 C102.469166,27.5840234 100.486777,29 97.6490014,29 C96.7835803,29 95.9986753,28.8744702 95.2942628,28.6234067 C94.5898503,28.3723433 93.9055742,27.975669 93.2414138,27.433372 L95.203696,24.0892236 C95.9081085,24.6716908 96.6125104,24.96292 97.3169229,24.96292 C98.3031004,24.96292 99.0175652,24.4808855 99.4603388,23.5168019 L99.9131731,22.612978 L93.1810359,6.73580533 L97.9810799,6.73580533 L102.237723,17.8829664 L106.07172,6.73580533 L110.720819,6.73580533 L103.596226,24.7520278 Z M121.992422,6.58516802 C123.501878,6.58516802 124.83521,6.93163037 125.992459,7.62456547 C127.149708,8.31750057 128.045305,9.2966333 128.679276,10.561993 C129.313247,11.8273528 129.630228,13.2834989 129.630228,14.9304751 C129.630228,16.5573662 129.318279,17.9884063 128.69437,19.2236385 C128.070462,20.4588706 127.18996,21.4179186 126.052837,22.1008111 C124.915714,22.7837037 123.592444,23.1251448 122.082989,23.1251448 C120.955929,23.1251448 119.954672,22.9092335 119.079188,22.4774044 C118.203704,22.0455753 117.464082,21.4179261 116.8603,20.594438 L116.8603,28.7891078 L112.2112,28.7891078 L112.2112,6.73580533 L116.8603,6.73580533 L116.8603,9.11587486 C117.443956,8.29238677 118.173515,7.66473758 119.048999,7.23290846 C119.924483,6.80107934 120.905614,6.58516802 121.992422,6.58516802 Z M120.90562,19.2688297 C122.093058,19.2688297 123.059095,18.8520706 123.80376,18.01854 C124.548424,17.1850094 124.920751,16.1054527 124.920751,14.7798378 C124.920751,13.4743079 124.548424,12.4047937 123.80376,11.571263 C123.059095,10.7377324 122.093058,10.3209733 120.90562,10.3209733 C119.718182,10.3209733 118.747113,10.7377324 117.992385,11.571263 C117.237658,12.4047937 116.8603,13.4743079 116.8603,14.7798378 C116.8603,16.1255378 117.237658,17.2101156 117.992385,18.0336037 C118.747113,18.8570918 119.718182,19.2688297 120.90562,19.2688297 Z M138.999927,6.58516802 C141.616316,6.58516802 143.603736,7.33834705 144.962245,8.84472769 C146.320755,10.3511083 147,12.4499672 147,15.1413673 C147,15.6234091 146.989937,15.9949775 146.969811,16.2560834 L135.316874,16.2560834 C135.578513,17.2804223 136.081657,18.078792 136.826322,18.6512167 C137.570986,19.2236413 138.466583,19.5098494 139.513139,19.5098494 C140.27793,19.5098494 141.01252,19.3642348 141.716933,19.0730012 C142.421345,18.7817676 143.055307,18.3549661 143.618837,17.792584 L146.064142,20.2630359 C145.238973,21.1869494 144.237716,21.8949377 143.060341,22.387022 C141.882966,22.8791064 140.56976,23.1251448 139.120682,23.1251448 C137.409966,23.1251448 135.915628,22.7837037 134.637622,22.1008111 C133.359617,21.4179186 132.373454,20.4538494 131.679105,19.2085747 C130.984755,17.9633001 130.637586,16.5272387 130.637586,14.9003476 C130.637586,13.2533714 130.989787,11.8022465 131.694199,10.5469293 C132.398612,9.29161211 133.384774,8.31750057 134.652717,7.62456547 C135.920659,6.93163037 137.369715,6.58516802 138.999927,6.58516802 Z M142.622601,13.5144844 C142.582349,12.4499754 142.240211,11.5963725 141.596177,10.9536501 C140.952143,10.3109276 140.096797,9.98957126 139.030116,9.98957126 C138.023812,9.98957126 137.183561,10.3059065 136.509338,10.9385863 C135.835114,11.5712662 135.407442,12.4298903 135.226307,13.5144844 L142.622601,13.5144844 Z" id="type" opacity="0.200000003"></path>
        </g>
    </g>
</svg>