<?xml version="1.0" encoding="UTF-8"?>
<svg width="71px" height="71px" viewBox="0 0 71 71" version="1.1" xmlns="http://www.w3.org/2000/svg" xmlns:xlink="http://www.w3.org/1999/xlink">
    <!-- Generator: Sketch 48.1 (47250) - http://www.bohemiancoding.com/sketch -->
    <title>Artboard 3 Copy 4</title>
    <desc>Created with Sketch.</desc>
    <defs></defs>
    <g id="Page-1" stroke="none" stroke-width="1" fill="none" fill-rule="evenodd">
        <g id="Artboard-3-Copy-4">
            <rect id="Rectangle" fill="#FFFFFF" x="3" y="3" width="65" height="65" rx="2"></rect>
            <path d="M19.5953698,24 C22.9585458,24 25.5687328,24.8187506 27.4260091,26.4562764 C29.2832854,28.0938023 30.2119096,30.3977284 30.2119096,33.3681241 C30.2119096,36.5162358 29.2832854,38.9597938 27.4260091,40.6988717 C25.5687328,42.4379495 22.9585458,43.3074753 19.5953698,43.3074753 L14.8894567,43.3074753 L14.8894567,50.6953456 L8,50.6953456 L8,24 L19.5953698,24 Z M19.256544,37.7475317 C20.6620504,37.7475317 21.7475368,37.3921051 22.5130358,36.6812412 C23.2785349,35.9703773 23.6612786,34.9421788 23.6612786,33.596615 C23.6612786,32.3018271 23.2785349,31.3053632 22.5130358,30.6071932 C21.7475368,29.9090233 20.6620504,29.5599436 19.256544,29.5599436 L14.8894567,29.5599436 L14.8894567,37.7475317 L19.256544,37.7475317 Z M46,49.629055 C45.2470501,50.060651 44.3811708,50.3970369 43.402336,50.6382228 C42.4235012,50.8794088 41.4321321,51 40.4281989,51 C38.4203327,51 36.7952403,50.4160848 35.552873,49.248237 C34.3105058,48.0803891 33.6893315,46.4682754 33.6893315,44.4118477 L33.6893315,35.5768688 L30.8657836,35.5768688 L30.8657836,31.0832158 L33.6893315,31.0832158 L33.6893315,25.370945 L40.3529043,25.370945 L40.3529043,31.0832158 L45.623527,31.0832158 L45.623527,35.5768688 L40.3529043,35.5768688 L40.3529043,43.3455571 C40.3529043,44.792673 40.9427062,45.51622 42.1223276,45.51622 C42.8501792,45.51622 43.7160585,45.2877315 44.7199917,44.8307475 L46,49.629055 Z" id="Pt" fill="#22282D"></path>
            <path d="M8,8.11157601 L15.7037037,8.11157601 L15.7037037,9.88284519 L12.0654608,17.888424 L9.39190353,17.888424 L12.9061154,10.1617852 L10.2325581,10.1617852 L10.2187769,11.5425384 L8,11.5425384 L8,8.11157601 Z M20.0999139,8 C21.1381045,8 21.9649696,8.23942113 22.580534,8.71827057 C23.1960984,9.19712001 23.503876,9.84100014 23.503876,10.6499303 C23.503876,11.0590444 23.4005178,11.4425831 23.1937984,11.8005579 C22.9870791,12.1585327 22.7091605,12.4444434 22.3600345,12.6582985 C22.8653485,12.8907497 23.265,13.2277988 23.5590009,13.6694561 C23.8530018,14.1111133 24,14.601578 24,15.1408647 C24,15.7173437 23.8415175,16.2217552 23.5245478,16.6541144 C23.2075781,17.0864736 22.7550991,17.4188738 22.1670973,17.651325 C21.5790955,17.8837762 20.894635,18 20.1136951,18 C19.3327552,18 18.6505915,17.8837762 18.0671835,17.651325 C17.4837754,17.4188738 17.0312965,17.0911225 16.709733,16.6680614 C16.3881695,16.2450002 16.2273902,15.7498866 16.2273902,15.1827057 C16.2273902,14.6341209 16.3881695,14.1343584 16.709733,13.6834031 C17.0312965,13.2324478 17.4585101,12.8907497 17.9913867,12.6582985 C17.6055106,12.4258473 17.297733,12.1236653 17.0680448,11.7517434 C16.8383566,11.3798215 16.7235142,10.9893093 16.7235142,10.5801953 C16.7235142,10.0595046 16.8613251,9.60390711 17.1369509,9.21338912 C17.4125767,8.82287113 17.8053377,8.5230136 18.3152455,8.31380753 C18.8251533,8.10460146 19.4200368,8 20.0999139,8 Z M20.1136951,9.71548117 C19.7002563,9.71548117 19.3809945,9.80846025 19.1559001,9.9944212 C18.9308057,10.1803821 18.8182601,10.4453725 18.8182601,10.7894003 C18.8182601,11.12413 18.9308057,11.3821469 19.1559001,11.5634589 C19.3809945,11.7447708 19.7002563,11.8354254 20.1136951,11.8354254 C20.5363214,11.8354254 20.85788,11.7447708 21.0783807,11.5634589 C21.2988814,11.3821469 21.4091301,11.12413 21.4091301,10.7894003 C21.4091301,10.4453725 21.2988814,10.1803821 21.0783807,9.9944212 C20.85788,9.80846025 20.5363214,9.71548117 20.1136951,9.71548117 Z M20.1136951,13.7043236 C19.6267561,13.7043236 19.25237,13.808925 18.9905254,14.0181311 C18.7286809,14.2273372 18.5977606,14.5271947 18.5977606,14.9177127 C18.5977606,15.3082307 18.7286809,15.6080882 18.9905254,15.8172943 C19.25237,16.0265003 19.6267561,16.1311018 20.1136951,16.1311018 C20.6006341,16.1311018 20.9773171,16.0265003 21.2437554,15.8172943 C21.5101937,15.6080882 21.6434109,15.3082307 21.6434109,14.9177127 C21.6434109,14.5271947 21.5101937,14.2273372 21.2437554,14.0181311 C20.9773171,13.808925 20.6006341,13.7043236 20.1136951,13.7043236 Z" id="78" fill="#22282D"></path>
            <path d="M9,61.8757576 L10.4069725,61.8757576 L10.4069725,57.4424242 L9.24770642,57.4424242 L9.24770642,56.6787879 C9.56477223,56.6151512 9.83724657,56.5391419 10.0651376,56.4507576 C10.2930287,56.3623733 10.5060541,56.2545461 10.7042202,56.1272727 L11.5563303,56.1272727 L11.5563303,61.8757576 L12.7948624,61.8757576 L12.7948624,62.8727273 L9,62.8727273 L9,61.8757576 Z M15.7673394,59.4151515 C15.945689,59.4151515 16.1355953,59.3550511 16.3370642,59.2348485 C16.5385331,59.1146459 16.7251368,58.9131327 16.8968807,58.630303 C16.8374309,58.0363607 16.700368,57.6050518 16.4856881,57.3363636 C16.2710081,57.0676754 16.0117446,56.9333333 15.7078899,56.9333333 C15.4502739,56.9333333 15.2289918,57.0429282 15.0440367,57.2621212 C14.8590816,57.4813142 14.7666055,57.7959575 14.7666055,58.2060606 C14.7666055,58.6090929 14.8541276,58.9113626 15.0291743,59.1128788 C15.2042211,59.3143949 15.4502736,59.4151515 15.7673394,59.4151515 Z M14.4297248,61.4939394 C14.5486244,61.642425 14.6988982,61.7643935 14.8805505,61.8598485 C15.0622027,61.9553035 15.2488064,62.0030303 15.440367,62.0030303 C15.6385331,62.0030303 15.8251367,61.9606065 16.0001835,61.8757576 C16.1752302,61.7909087 16.3288067,61.6512636 16.4609174,61.4568182 C16.5930282,61.2623728 16.7003666,61.0060622 16.7829358,60.6878788 C16.865505,60.3696954 16.9133944,59.9772751 16.9266055,59.5106061 C16.7416505,59.758082 16.523671,59.9507569 16.2726606,60.0886364 C16.0216501,60.2265158 15.7805516,60.2954545 15.5493578,60.2954545 C15.2785308,60.2954545 15.0308268,60.2530307 14.8062385,60.1681818 C14.5816503,60.0833329 14.3884412,59.9542938 14.2266055,59.7810606 C14.0647698,59.6078274 13.9392665,59.3904053 13.8500917,59.1287879 C13.760917,58.8671704 13.7163303,58.5595977 13.7163303,58.2060606 C13.7163303,57.866665 13.7691738,57.5608599 13.8748624,57.2886364 C13.980551,57.0164128 14.1225679,56.7848494 14.3009174,56.5939394 C14.4792669,56.4030293 14.6889896,56.2563136 14.9300917,56.1537879 C15.1711939,56.0512621 15.4271546,56 15.6979817,56 C16.0018364,56 16.2924757,56.0654034 16.5699083,56.1962121 C16.8473408,56.3270209 17.0900907,56.5267663 17.2981651,56.7954545 C17.5062396,57.0641428 17.6713755,57.405301 17.793578,57.8189394 C17.9157804,58.2325778 17.9768807,58.7222194 17.9768807,59.2878788 C17.9768807,59.9454578 17.909175,60.5075734 17.7737615,60.9742424 C17.6383479,61.4409114 17.4566984,61.8244934 17.2288073,62.125 C17.0009163,62.4255066 16.7366988,62.6464639 16.4361468,62.7878788 C16.1355948,62.9292936 15.8234879,63 15.4998165,63 C15.1233009,63 14.7963317,62.9257583 14.5188991,62.7772727 C14.2414665,62.6287871 14.0069734,62.4484859 13.8154128,62.2363636 L14.4297248,61.4939394 Z M19.1955963,61.2818182 C19.3871569,61.4727282 19.6018337,61.6406558 19.839633,61.7856061 C20.0774324,61.9305563 20.3548608,62.0030303 20.6719266,62.0030303 C21.0286256,62.0030303 21.3209163,61.8899001 21.5488073,61.6636364 C21.7766984,61.4373726 21.8906422,61.119194 21.8906422,60.7090909 C21.8906422,60.3060586 21.7849552,59.9949506 21.573578,59.7757576 C21.3622008,59.5565646 21.0814696,59.4469697 20.7313761,59.4469697 C20.5266045,59.4469697 20.3548631,59.4770199 20.2161468,59.5371212 C20.0774305,59.5972225 19.9122945,59.6944438 19.7207339,59.8287879 L19.1757798,59.4575758 L19.3640367,56.1272727 L22.732844,56.1272727 L22.732844,57.1560606 L20.3548624,57.1560606 L20.226055,58.7893939 C20.3581658,58.7186865 20.4886232,58.6638891 20.6174312,58.625 C20.7462392,58.5861109 20.8932102,58.5666667 21.0583486,58.5666667 C21.3291757,58.5666667 21.5851364,58.6090905 21.8262385,58.6939394 C22.0673407,58.7787883 22.2770633,58.9078274 22.4554128,59.0810606 C22.6337624,59.2542938 22.7757793,59.4734835 22.8814679,59.7386364 C22.9871565,60.0037892 23.04,60.3166649 23.04,60.6772727 C23.04,61.0449513 22.9788997,61.3737359 22.8566972,61.6636364 C22.7344948,61.9535368 22.5710102,62.1974738 22.3662385,62.3954545 C22.1614669,62.5934353 21.9253224,62.7436864 21.6577982,62.8462121 C21.3902739,62.9487379 21.1111941,63 20.8205505,63 C20.3119241,63 19.8842219,62.9063141 19.5374312,62.7189394 C19.1906405,62.5315647 18.9016525,62.3141427 18.6704587,62.0666667 L19.1955963,61.2818182 Z M24.1398165,62.1727273 C24.1398165,61.932322 24.210825,61.7343442 24.352844,61.5787879 C24.4948631,61.4232315 24.6715586,61.3454545 24.8829358,61.3454545 C25.094313,61.3454545 25.2693571,61.4232315 25.4080734,61.5787879 C25.5467897,61.7343442 25.6161468,61.932322 25.6161468,62.1727273 C25.6161468,62.4131325 25.5467897,62.6111103 25.4080734,62.7666667 C25.2693571,62.922223 25.094313,63 24.8829358,63 C24.6715586,63 24.4948631,62.922223 24.352844,62.7666667 C24.210825,62.6111103 24.1398165,62.4131325 24.1398165,62.1727273 Z M28.7768807,63 C28.116327,63 27.5944973,62.6977303 27.2113761,62.0931818 C26.828255,61.4886333 26.6366972,60.6136421 26.6366972,59.4681818 C26.6366972,58.3227215 26.828255,57.4583363 27.2113761,56.875 C27.5944973,56.2916638 28.116327,56 28.7768807,56 C29.4374345,56 29.9592641,56.2934314 30.3423853,56.880303 C30.7255065,57.4671747 30.9170642,58.3297923 30.9170642,59.4681818 C30.9170642,60.6136421 30.7255065,61.4886333 30.3423853,62.0931818 C29.9592641,62.6977303 29.4374345,63 28.7768807,63 Z M28.7768807,62.0454545 C28.9288081,62.0454545 29.0691737,62.0012631 29.1979817,61.9128788 C29.3267896,61.8244945 29.4374307,61.6777788 29.5299083,61.4727273 C29.6223858,61.2676757 29.6950456,61.0025269 29.7478899,60.6772727 C29.8007342,60.3520186 29.827156,59.9489923 29.827156,59.4681818 C29.827156,58.9944421 29.8007342,58.5967188 29.7478899,58.275 C29.6950456,57.9532812 29.6223858,57.6934353 29.5299083,57.4954545 C29.4374307,57.2974738 29.3267896,57.1578287 29.1979817,57.0765152 C29.0691737,56.9952016 28.9288081,56.9545455 28.7768807,56.9545455 C28.6249534,56.9545455 28.4845878,56.9952016 28.3557798,57.0765152 C28.2269718,57.1578287 28.1163307,57.2974738 28.0238532,57.4954545 C27.9313757,57.6934353 27.8587159,57.9532812 27.8058716,58.275 C27.7530273,58.5967188 27.7266055,58.9944421 27.7266055,59.4681818 C27.7266055,59.9489923 27.7530273,60.3520186 27.8058716,60.6772727 C27.8587159,61.0025269 27.9313757,61.2676757 28.0238532,61.4727273 C28.1163307,61.6777788 28.2269718,61.8244945 28.3557798,61.9128788 C28.4845878,62.0012631 28.6249534,62.0454545 28.7768807,62.0454545 Z M32.7302752,61.0166667 C32.7302752,61.3560623 32.8425677,61.6265141 33.067156,61.8280303 C33.2917442,62.0295465 33.5658699,62.130303 33.8895413,62.130303 C34.193396,62.130303 34.4427513,62.0419201 34.6376147,61.8651515 C34.832478,61.688383 34.9299083,61.4409107 34.9299083,61.1227273 C34.9299083,60.938888 34.8902756,60.7815663 34.8110092,60.6507576 C34.7317427,60.5199488 34.6244043,60.4032833 34.4889908,60.3007576 C34.3535773,60.1982318 34.1933954,60.1045459 34.0084404,60.019697 C33.8234853,59.9348481 33.6253222,59.8464651 33.413945,59.7545455 C33.2157788,59.9101018 33.0522942,60.0939383 32.9234862,60.3060606 C32.7946783,60.5181829 32.7302752,60.7550492 32.7302752,61.0166667 Z M34.2858716,59.0651515 C34.4576155,58.8813122 34.5880729,58.6939403 34.6772477,58.5030303 C34.7664225,58.3121203 34.8110092,58.1106071 34.8110092,57.8984848 C34.8110092,57.6015137 34.7300926,57.3558091 34.5682569,57.1613636 C34.4064212,56.9669182 34.1768822,56.869697 33.879633,56.869697 C33.6352281,56.869697 33.4304595,56.9492416 33.2653211,57.1083333 C33.1001827,57.267425 33.0176147,57.4954531 33.0176147,57.7924242 C33.0176147,57.9621221 33.0506419,58.1106054 33.1166972,58.2378788 C33.1827526,58.3651522 33.2735774,58.4765147 33.3891743,58.5719697 C33.5047712,58.6674247 33.6385314,58.7558077 33.7904587,58.8371212 C33.9423861,58.9184347 34.107522,58.9944441 34.2858716,59.0651515 Z M31.7295413,61.1439394 C31.7295413,60.9318171 31.7609171,60.7391423 31.8236697,60.5659091 C31.8864223,60.3926759 31.9706417,60.2353542 32.0763303,60.0939394 C32.1820189,59.9525245 32.3025681,59.8252531 32.4379817,59.7121212 C32.5733952,59.5989893 32.7170635,59.5000004 32.8689908,59.4151515 L32.8689908,59.3727273 C32.6245859,59.188888 32.418166,58.9696982 32.2497248,58.7151515 C32.0812836,58.4606048 31.9970642,58.1530321 31.9970642,57.7924242 C31.9970642,57.5166653 32.0449536,57.269193 32.1407339,57.05 C32.2365142,56.830807 32.368623,56.6434351 32.5370642,56.4878788 C32.7055054,56.3323225 32.9069713,56.2121216 33.1414679,56.1272727 C33.3759645,56.0424238 33.6286225,56 33.8994495,56 C34.1834877,56 34.4394484,56.0441915 34.6673394,56.1325758 C34.8952305,56.22096 35.0900909,56.3446962 35.2519266,56.5037879 C35.4137623,56.6628796 35.5376142,56.8537868 35.6234862,57.0765152 C35.7093582,57.2992435 35.7522936,57.5484835 35.7522936,57.8242424 C35.7522936,57.9939402 35.7275232,58.1547972 35.6779817,58.3068182 C35.6284401,58.4588391 35.5640371,58.6002519 35.4847706,58.7310606 C35.4055042,58.8618693 35.3146794,58.9820702 35.2122936,59.0916667 C35.1099077,59.2012632 35.0091748,59.2949491 34.9100917,59.3727273 L34.9100917,59.4151515 C35.0554136,59.5000004 35.1941278,59.5972217 35.3262385,59.7068182 C35.4583493,59.8164147 35.5739445,59.9419185 35.6730275,60.0833333 C35.7721106,60.2247482 35.8513758,60.3838375 35.9108257,60.5606061 C35.9702755,60.7373746 36,60.9388878 36,61.1651515 C36,61.426769 35.9488079,61.6689383 35.846422,61.8916667 C35.7440362,62.1143951 35.6003679,62.3088376 35.4154128,62.475 C35.2304578,62.6411624 35.0058729,62.7702016 34.7416514,62.8621212 C34.4774299,62.9540409 34.1867906,63 33.8697248,63 C33.5592645,63 33.2735793,62.9540409 33.0126606,62.8621212 C32.7517418,62.7702016 32.5271569,62.6429301 32.3388991,62.480303 C32.1506413,62.317676 32.0020189,62.1232335 31.8930275,61.8969697 C31.7840362,61.6707059 31.7295413,61.4196983 31.7295413,61.1439394 Z" id="195.08" fill="#22282D"></path>
            <text id="铂" font-family="PingFangSC-Ultralight, PingFang SC" font-size="20" font-weight="200" letter-spacing="-1.97241342" fill="#22282D">
                <tspan x="46" y="23">铂</tspan>
            </text>
            <text id="序数" font-family="PingFangSC-Light, PingFang SC" font-size="6" font-weight="300" letter-spacing="-0.591724217" fill="#22282D">
                <tspan x="25" y="17">序数</tspan>
            </text>
            <text id="标准原子量" font-family="PingFangSC-Light, PingFang SC" font-size="6" font-weight="300" letter-spacing="-0.591724217" fill="#22282D">
                <tspan x="38" y="62">标准原子量</tspan>
            </text>
            <text id="roto" font-family="Montserrat-Bold, Montserrat" font-size="6" font-weight="bold" fill="#22282D">
                <tspan x="16" y="50">roto</tspan>
            </text>
            <text id="ype" font-family="Montserrat-Bold, Montserrat" font-size="6" font-weight="bold" fill="#22282D">
                <tspan x="46" y="50">ype</tspan>
            </text>
        </g>
    </g>
</svg>