<?xml version="1.0" encoding="UTF-8"?>
<svg width="210px" height="60px" viewBox="0 0 210 60" version="1.1" xmlns="http://www.w3.org/2000/svg" xmlns:xlink="http://www.w3.org/1999/xlink">
    <!-- Generator: Sketch 49.3 (51167) - http://www.bohemiancoding.com/sketch -->
    <title>Artboard 2 Copy</title>
    <desc>Created with Sketch.</desc>
    <defs></defs>
    <g id="Artboard-2-Copy" stroke="none" stroke-width="1" fill="none" fill-rule="evenodd">
        <text id="PROTO-Copy" font-family="Dosis-Medium, Dosis" font-size="30" font-weight="400" letter-spacing="1" fill="#FFFFFF">
            <tspan x="54" y="42">PROT</tspan>
            <tspan x="121.48" y="42">O</tspan>
        </text>
        <path d="M10.731903,12.933891 L28.0194568,9.259308 C33.9618328,7.99621699 39.803018,11.789527 41.066109,17.731903 L44.740692,35.0194568 C46.003783,40.9618328 42.210473,46.803018 36.268097,48.066109 L18.9805432,51.740692 C13.0381672,53.003783 7.19698201,49.210473 5.933891,43.268097 L2.259308,25.9805432 C0.996216986,20.0381672 4.78952698,14.196982 10.731903,12.933891 Z M14.8907923,37.5401101 C14.8907923,37.8165054 15.0289879,38.034709 15.3053832,38.1947273 C15.5817785,38.3547456 15.9163573,38.4347536 16.3091295,38.4347536 C16.6873547,38.4347536 17.0182967,38.3547456 17.3019656,38.1947273 C17.5856345,38.034709 17.7274668,37.8165054 17.7274668,37.5401101 L17.7274668,32.4777373 L20.1713709,32.4777373 C21.7133657,32.4777373 22.9534892,32.0776975 23.8917785,31.2776059 C24.8300678,30.4775142 25.2992054,29.2264806 25.2992054,27.5244674 L25.2992054,27.393544 C25.2992054,25.7060779 24.8482514,24.4659545 23.9463299,23.6731364 C23.0444084,22.8803183 21.8442889,22.4839152 20.3459354,22.4839152 L15.9600004,22.4839152 C15.6399637,22.4839152 15.3817562,22.5711966 15.1853701,22.745762 C14.9889839,22.9203275 14.8907923,23.1239841 14.8907923,23.3567381 L14.8907923,37.5401101 Z M17.7274668,30.2520389 L17.7274668,24.9714604 L20.1713709,24.9714604 C20.8987269,24.9714604 21.4624194,25.1823905 21.8624652,25.604257 C22.2625111,26.0261235 22.462531,26.6516404 22.462531,27.4808263 L22.462531,27.7426731 C22.462531,28.571859 22.2625111,29.1973758 21.8624652,29.6192423 C21.4624194,30.0411089 20.8987269,30.2520389 20.1713709,30.2520389 L17.7274668,30.2520389 Z M26.5922142,34.8998209 C26.5922142,37.2564545 27.9378028,38.4347536 30.6290201,38.4347536 L31.4800225,38.4347536 C31.8582476,38.4347536 32.1528224,38.3183784 32.3637557,38.0856244 C32.5746889,37.8528705 32.680154,37.5692059 32.680154,37.2346221 C32.680154,36.9145855 32.5746889,36.6381943 32.3637557,36.4054404 C32.1528224,36.1726864 31.8582476,36.0563112 31.4800225,36.0563112 L30.6290201,36.0563112 C30.1780594,36.0563112 29.8616643,35.9690298 29.6798252,35.7944643 C29.4979862,35.6198989 29.4070681,35.3216874 29.4070681,34.8998209 L29.4070681,30.1211155 L31.9818956,30.1211155 C32.2001024,30.1211155 32.3746653,30.0192872 32.5055894,29.8156275 C32.6365135,29.6119678 32.7019745,29.3719439 32.7019745,29.0955486 C32.7019745,28.8191533 32.6365135,28.5791294 32.5055894,28.3754697 C32.3746653,28.17181 32.2001024,28.0699817 31.9818956,28.0699817 L29.4070681,28.0699817 L29.4070681,24.3168433 C29.4070681,24.0695422 29.2652358,23.8622488 28.9815669,23.6949569 C28.6978981,23.527665 28.366956,23.4440204 27.9887309,23.4440204 C27.6396,23.4440204 27.3195681,23.527665 27.0286257,23.6949569 C26.7376833,23.8622488 26.5922142,24.0695422 26.5922142,24.3168433 L26.5922142,34.8998209 Z" id="Combined-Shape" fill="#FFFFFF" opacity="0.200000003"></path>
        <path d="M18.9805432,9.259308 L36.268097,12.933891 C42.210473,14.196982 46.003783,20.0381672 44.740692,25.9805432 L41.066109,43.268097 C39.803018,49.210473 33.9618328,53.003783 28.0194568,51.740692 L10.731903,48.066109 C4.78952698,46.803018 0.996216986,40.9618328 2.259308,35.0194568 L5.933891,17.731903 C7.19698201,11.789527 13.0381672,7.99621699 18.9805432,9.259308 Z M14.8907923,37.5401101 C14.8907923,37.8165054 15.0289879,38.034709 15.3053832,38.1947273 C15.5817785,38.3547456 15.9163573,38.4347536 16.3091295,38.4347536 C16.6873547,38.4347536 17.0182967,38.3547456 17.3019656,38.1947273 C17.5856345,38.034709 17.7274668,37.8165054 17.7274668,37.5401101 L17.7274668,32.4777373 L20.1713709,32.4777373 C21.7133657,32.4777373 22.9534892,32.0776975 23.8917785,31.2776059 C24.8300678,30.4775142 25.2992054,29.2264806 25.2992054,27.5244674 L25.2992054,27.393544 C25.2992054,25.7060779 24.8482514,24.4659545 23.9463299,23.6731364 C23.0444084,22.8803183 21.8442889,22.4839152 20.3459354,22.4839152 L15.9600004,22.4839152 C15.6399637,22.4839152 15.3817562,22.5711966 15.1853701,22.745762 C14.9889839,22.9203275 14.8907923,23.1239841 14.8907923,23.3567381 L14.8907923,37.5401101 Z M17.7274668,30.2520389 L17.7274668,24.9714604 L20.1713709,24.9714604 C20.8987269,24.9714604 21.4624194,25.1823905 21.8624652,25.604257 C22.2625111,26.0261235 22.462531,26.6516404 22.462531,27.4808263 L22.462531,27.7426731 C22.462531,28.571859 22.2625111,29.1973758 21.8624652,29.6192423 C21.4624194,30.0411089 20.8987269,30.2520389 20.1713709,30.2520389 L17.7274668,30.2520389 Z M26.5922142,34.8998209 C26.5922142,37.2564545 27.9378028,38.4347536 30.6290201,38.4347536 L31.4800225,38.4347536 C31.8582476,38.4347536 32.1528224,38.3183784 32.3637557,38.0856244 C32.5746889,37.8528705 32.680154,37.5692059 32.680154,37.2346221 C32.680154,36.9145855 32.5746889,36.6381943 32.3637557,36.4054404 C32.1528224,36.1726864 31.8582476,36.0563112 31.4800225,36.0563112 L30.6290201,36.0563112 C30.1780594,36.0563112 29.8616643,35.9690298 29.6798252,35.7944643 C29.4979862,35.6198989 29.4070681,35.3216874 29.4070681,34.8998209 L29.4070681,30.1211155 L31.9818956,30.1211155 C32.2001024,30.1211155 32.3746653,30.0192872 32.5055894,29.8156275 C32.6365135,29.6119678 32.7019745,29.3719439 32.7019745,29.0955486 C32.7019745,28.8191533 32.6365135,28.5791294 32.5055894,28.3754697 C32.3746653,28.17181 32.2001024,28.0699817 31.9818956,28.0699817 L29.4070681,28.0699817 L29.4070681,24.3168433 C29.4070681,24.0695422 29.2652358,23.8622488 28.9815669,23.6949569 C28.6978981,23.527665 28.366956,23.4440204 27.9887309,23.4440204 C27.6396,23.4440204 27.3195681,23.527665 27.0286257,23.6949569 C26.7376833,23.8622488 26.5922142,24.0695422 26.5922142,24.3168433 L26.5922142,34.8998209 Z" id="Combined-Shape" fill="#FFFFFF"></path>
        <text id="TYPE-Copy" opacity="0.300000012" font-family="Dosis-Medium, Dosis" font-size="30" font-weight="400" letter-spacing="1" fill="#FFFFFF">
            <tspan x="142" y="42">TYP</tspan>
            <tspan x="192.22" y="42">E</tspan>
        </text>
    </g>
</svg>